# xmcd
#
# Track frame offsets: 
#        150
#        17743
#        30603
#        45215
#        61812
#        72995
#        84562
#        103136
#        116390
#        129510
#        143482
#
# Disc length: 2046 seconds
#
# Revision: 0
# Processed by: cddbd v1.5PL3 Copyright (c) Steve Scherf et al.
# Submitted via: ExactAudioCopy v0.95a5
#
DISCID=8707fc0b
DTITLE=Southern Lite - Building Bridges
DYEAR=2003
DGENRE=Bluegrass
TTITLE0=I'm Not That Good At Good-byes
TTITLE1=Tennessee
TTITLE2=Crazy For Your Love
TTITLE3=Go Rest High On That Mountain
TTITLE4=One Tear
TTITLE5=Hallelujah I'm Ready To Go
TTITLE6=Jagged Edge Of A Broken Heart
TTITLE7=Cincinnati Rag
TTITLE8=Checkin Her Over
TTITLE9=Put It Off Until Tomorrow
TTITLE10=Ole Slew Foot
EXTD=
EXTT0=
EXTT1=
EXTT2=
EXTT3=
EXTT4=
EXTT5=
EXTT6=
EXTT7=
EXTT8=
EXTT9=
EXTT10=
PLAYORDER=
